<?xml version="1.0" encoding="iso-8859-1"?>
<!-- Generator: Adobe Illustrator 19.0.0, SVG Export Plug-In . SVG Version: 6.00 Build 0)  -->
<svg version="1.1" id="Capa_1" xmlns="http://www.w3.org/2000/svg" xmlns:xlink="http://www.w3.org/1999/xlink" x="0px" y="0px" viewBox="0 0 480.008 480.008" xml:space="preserve">
<g>
	<g>
		<path d="M472.004,328.008h-24v-24c0-4.418-3.582-8-8-8h-48c-4.418,0-8,3.582-8,8v24h-48v-16c-0.035-30.913-25.087-55.965-56-56
			h-80c-30.913,0.035-55.965,25.087-56,56v16h-48v-24c0-4.418-3.582-8-8-8h-48c-4.418,0-8,3.582-8,8v24h-24c-4.418,0-8,3.582-8,8
			v144h16v-136h448v136h16v-144C480.004,331.59,476.422,328.008,472.004,328.008z M80.004,328.008h-32v-16h32V328.008z
			 M288.004,328.008h-96v-16c0-4.418,3.582-8,8-8h80c4.418,0,8,3.582,8,8V328.008z M320.004,328.008h-16v-16
			c0-13.255-10.745-24-24-24h-80c-13.255,0-24,10.745-24,24v16h-16v-16c0.026-22.08,17.92-39.974,40-40h80
			c22.08,0.026,39.974,17.92,40,40V328.008z M432.004,328.008h-32v-16h32V328.008z"/>
	</g>
</g>
<g>
	<g>
		<path d="M476.492,1.384c-2.201-1.49-4.998-1.79-7.464-0.8L390.46,32.008h-52.92L258.98,0.576c-2.366-0.943-5.04-0.702-7.2,0.648
			L235.476,11.4L202.532,0.416c-1.53-0.508-3.178-0.541-4.728-0.096L88.444,31.56L10.98,0.576C6.879-1.067,2.222,0.925,0.578,5.026
			c-0.38,0.948-0.575,1.961-0.574,2.982v144c-0.001,3.802,2.675,7.08,6.4,7.84l40,8c0.526,0.11,1.063,0.164,1.6,0.16
			c3.445,0.001,6.503-2.204,7.592-5.472l5.416-16.24l52.728,18.832c4.611,7.917,13.078,12.79,22.24,12.8
			c2.612-0.016,5.206-0.426,7.696-1.216c4.551,13.139,18.758,20.242,32,16c4.551,13.139,18.758,20.242,32,16
			c4.646,13.386,19.264,20.472,32.65,15.826c3.795-1.317,7.228-3.507,10.022-6.394l10.08,5.04
			c12.788,6.394,28.338,1.211,34.732-11.578c1.624-3.248,2.547-6.802,2.708-10.43c13.901,3.381,27.911-5.147,31.293-19.048
			c0.395-1.624,0.632-3.283,0.707-4.952c13.912,3.373,27.925-5.171,31.298-19.083c0.391-1.613,0.626-3.259,0.702-4.917
			c9.842,2.36,20.158-1.219,26.424-9.168h29.944l6.176,18.528c1.089,3.268,4.147,5.473,7.592,5.472c0.538,0.004,1.074-0.05,1.6-0.16
			l40-8c3.725-0.76,6.401-4.038,6.4-7.84v-144C480.005,5.354,478.689,2.873,476.492,1.384z M60.34,97.704L48.412,133.48
			l-5.76,17.296l-26.648-5.328V19.824l62.024,24.8L60.34,97.704z M152.844,140.432l-8,16c-2.451,4.874-8.381,6.848-13.264,4.416v0
			c-4.881-2.444-6.858-8.382-4.416-13.264l8-16c2.439-4.881,8.374-6.86,13.255-4.421c0.003,0.002,0.006,0.003,0.009,0.005
			C153.309,129.613,155.286,135.55,152.844,140.432z M184.844,156.432l-8,16c-2.451,4.874-8.381,6.848-13.264,4.416v0
			c-4.881-2.444-6.858-8.382-4.416-13.264l8-16c2.439-4.881,8.374-6.86,13.255-4.421c0.003,0.002,0.006,0.003,0.009,0.005
			C185.309,145.613,187.286,151.55,184.844,156.432z M216.844,172.432l-8,16c-2.444,4.881-8.382,6.858-13.264,4.416v0
			c-4.881-2.444-6.858-8.382-4.416-13.264l8-16c2.439-4.881,8.374-6.86,13.255-4.421c0.003,0.002,0.006,0.003,0.009,0.005
			C217.309,161.613,219.286,167.55,216.844,172.432z M248.844,188.432l-8,16c-2.444,4.881-8.382,6.858-13.264,4.416v0
			c-4.881-2.444-6.858-8.382-4.416-13.264l8-16c2.439-4.881,8.374-6.86,13.255-4.421c0.003,0.002,0.006,0.003,0.009,0.005
			C249.309,177.613,251.286,183.55,248.844,188.432z M280.844,204.432c-2.444,4.881-8.382,6.858-13.264,4.416l-8.84-4.416
			l4.424-8.848c1.514-3.037,2.413-6.343,2.648-9.728l10.616,5.312c4.866,2.459,6.823,8.392,4.376,13.264H280.844z M376.844,132.472
			c-1.173,2.334-3.229,4.102-5.712,4.912c-2.487,0.844-5.209,0.651-7.552-0.536l-80-40c-3.954-1.975-8.761-0.37-10.736,3.584
			s-0.37,8.761,3.584,10.736l64,32c4.824,2.559,6.66,8.545,4.101,13.369c-2.474,4.663-8.174,6.56-12.949,4.311l-80-40
			c-3.954-1.975-8.761-0.37-10.736,3.584c-1.975,3.954-0.37,8.761,3.584,10.736l64,32c4.824,2.559,6.66,8.545,4.101,13.369
			c-2.474,4.663-8.174,6.56-12.949,4.311l-80-40c-5.975-2.987-12.878-3.532-19.248-1.52c-4.592-13.103-18.762-20.188-32-16
			c-4.774-13.453-19.551-20.489-33.004-15.715c-6.305,2.238-11.497,6.832-14.484,12.819l-8,16c-1.009,2.098-1.728,4.324-2.136,6.616
			l-44.64-15.936L94.26,46.536l105.6-30.16l18.056,6.024l-15.84,9.88c-11.423,7.141-14.893,22.19-7.752,33.613
			c5.763,9.218,16.931,13.51,27.384,10.523l41.496-11.864l109.224,54.656c1.174,0.586,2.219,1.402,3.072,2.4
			c0.614,0.776,1.105,1.642,1.456,2.568c0.24,0.554,0.425,1.13,0.552,1.72c0.249,0.915,0.37,1.86,0.36,2.808
			C377.779,130.016,377.431,131.296,376.844,132.472z M393.908,128.008c-0.028-0.87-0.1-1.738-0.216-2.6c0-0.328,0-0.656-0.08-0.976
			c-0.207-1.565-0.558-3.107-1.048-4.608c-1.018-3.004-2.577-5.797-4.6-8.24c-0.112-0.128-0.192-0.288-0.304-0.416
			c-0.915-1.037-1.913-1.998-2.984-2.872c-0.248-0.208-0.44-0.464-0.696-0.664c-1.373-1.069-2.846-2.001-4.4-2.784l-112-56
			c-1.792-0.892-3.852-1.081-5.776-0.528l-44.488,12.712c-4.447,1.305-9.11-1.243-10.415-5.691
			c-1.065-3.631,0.432-7.526,3.655-9.509l46.248-28.888l76.224,30.496c0.947,0.375,1.957,0.568,2.976,0.568h50.232l26.664,80
			H393.908z M464.004,145.448l-26.648,5.328l-5.76-17.296l-11.928-35.776L401.98,44.632l62.024-24.808V145.448z"/>
	</g>
</g>
<g>
</g>
<g>
</g>
<g>
</g>
<g>
</g>
<g>
</g>
<g>
</g>
<g>
</g>
<g>
</g>
<g>
</g>
<g>
</g>
<g>
</g>
<g>
</g>
<g>
</g>
<g>
</g>
<g>
</g>
</svg>
