<svg height="480pt" viewBox="0 -8 480.03489 480" width="480pt" xmlns="http://www.w3.org/2000/svg"><path d="m8.015625 416.015625v40c0 4.421875 3.582031 8 8 8h128c4.421875 0 8-3.578125 8-8v-40c2.21875.007813 4.335937-.910156 5.855469-2.523437 1.515625-1.617188 2.292968-3.792969 2.144531-6.003907l-6.886719-103.472656h22.886719c13.257813 0 24-10.742187 24-24h80c0 13.257813 10.746094 24 24 24h22.890625l-6.890625 103.472656c-.144531 2.210938.632813 4.386719 2.148437 6.003907 1.519532 1.613281 3.636719 2.53125 5.851563 2.523437v40c0 4.421875 3.582031 8 8 8h128c4.421875 0 8-3.578125 8-8v-40c2.21875.007813 4.335937-.910156 5.855469-2.523437 1.515625-1.617188 2.292968-3.792969 2.144531-6.003907l-13.039063-195.199219c-.949218-14.792968-7.777343-28.589843-18.960937-38.320312v-53.953125c0-13.253906-10.742187-24-24-24h-24v-16c4.421875 0 8-3.578125 8-8v-32c-.023437-3.554687-2.425781-6.652344-5.863281-7.566406l5.601562-22.488281c.597656-2.386719.0625-4.914063-1.445312-6.855469-1.511719-1.941407-3.832032-3.0820315-6.292969-3.089844h-96c-2.460937 0-4.789063 1.136719-6.304687 3.082031-1.515626 1.941406-2.050782 4.472656-1.453126 6.863282l5.601563 22.488281c-3.429687.921875-5.820313 4.019531-5.84375 7.566406v32c0 4.421875 3.582031 8 8 8v16c-13.253906 0-24 10.746094-24 24h-16v-24c0-4.417969-3.578125-8-8-8h-32c-4.417969 0-8 3.582031-8 8v24h-16c0-13.253906-10.742187-24-24-24v-16c4.421875 0 8-3.578125 8-8v-32c-.023437-3.554687-2.425781-6.652344-5.863281-7.566406l5.601562-22.488281c.597656-2.386719.0625-4.914063-1.445312-6.855469-1.511719-1.941407-3.832032-3.0820315-6.292969-3.089844h-96c-2.460937 0-4.789063 1.136719-6.304687 3.082031-1.515626 1.941406-2.050782 4.472656-1.453126 6.863282l5.601563 22.488281c-3.429687.921875-5.820313 4.019531-5.84375 7.566406v32c0 4.421875 3.582031 8 8 8v16h-24c-13.253906 0-24 10.746094-24 24v53.953125c-11.175781 9.734375-17.996094 23.53125-18.941406 38.320312l-13.058594 195.199219c-.144531 2.210938.632813 4.386719 2.148437 6.003907 1.519532 1.613281 3.636719 2.53125 5.851563 2.523437zm448 32h-112v-32h112zm-5.023437-234.664063 12.472656 186.664063h-126.902344l6.65625-100.40625 77.078125-115.59375h14.6875c9.402344 6.941406 15.257813 17.675781 16.007813 29.335937zm-61.222657-197.335937-4 16h-67.503906l-4-16zm-77.753906 32h80v16h-80zm72 32v16h-64v-16zm-88 192v-152c0-4.417969 3.582031-8 8-8h120c4.421875 0 8 3.582031 8 8v48h-16c-2.671875 0-5.171875 1.335937-6.652344 3.5625l-77.625 116.4375h-27.722656c-4.417969 0-8-3.578125-8-8zm-32-136h16v16h-16zm0 32h16v64h-16zm0 80h16v16h-16zm-32-144h16v16h-16zm0 32h16v16h-16zm0 32h16v64h-16zm0 80h16v16h-16zm-32-112h16v16h-16zm0 32h16v64h-16zm0 80h16v16h-16zm-64 200h-112v-32h112zm29.753906-432-4 16h-67.503906l-4-16zm-77.753906 32h80v16h-80zm72 32v16h-64v-16zm-112 40c0-4.417969 3.582031-8 8-8h120c4.421875 0 8 3.582031 8 8v160c0 4.421875-3.578125 8-8 8h-27.71875l-77.597656-116.4375c-1.492188-2.230469-4-3.570313-6.683594-3.5625h-16zm-18.972656 93.335937c.746093-11.65625 6.601562-22.390624 16-29.335937h14.695312l77.078125 115.59375 6.65625 100.40625h-126.902344zm0 0"/></svg>