<?xml version="1.0" encoding="iso-8859-1"?>
<!-- Generator: Adobe Illustrator 19.0.0, SVG Export Plug-In . SVG Version: 6.00 Build 0)  -->
<svg version="1.1" id="Layer_1" xmlns="http://www.w3.org/2000/svg" xmlns:xlink="http://www.w3.org/1999/xlink" x="0px" y="0px" viewBox="0 0 512 512" xml:space="preserve">
<g>
	<g>
		<path d="M419.068,0H92.933C80.081,0,69.661,10.42,69.661,23.273v139.636v108.603v108.609v108.606
			c0,12.851,10.42,23.273,23.273,23.273h108.606h108.606h108.921c12.853,0,23.273-10.422,23.273-23.273V162.909V23.273
			C442.341,10.42,431.921,0,419.068,0z M178.267,465.455h-62.061v-62.061h62.061V465.455z M178.267,356.849h-62.061v-62.064h62.061
			V356.849z M178.267,248.239h-62.061v-62.057h62.061V248.239z M286.873,465.455h-62.061v-62.061h62.061V465.455z M286.873,356.849
			h-62.061v-62.064h62.061V356.849z M286.873,248.239h-62.061v-62.057h62.061V248.239z M201.539,139.636h-85.333V46.545h279.588
			v93.091h-85.648H201.539z M333.418,186.182h62.376v62.057h-62.376V186.182z M395.795,465.455H333.42v-85.333v-85.336h62.376
			V465.455z"/>
	</g>
</g>
<g>
</g>
<g>
</g>
<g>
</g>
<g>
</g>
<g>
</g>
<g>
</g>
<g>
</g>
<g>
</g>
<g>
</g>
<g>
</g>
<g>
</g>
<g>
</g>
<g>
</g>
<g>
</g>
<g>
</g>
</svg>
