<?xml version="1.0" encoding="iso-8859-1"?>
<!-- Generator: Adobe Illustrator 19.0.0, SVG Export Plug-In . SVG Version: 6.00 Build 0)  -->
<svg version="1.1" id="Capa_1" xmlns="http://www.w3.org/2000/svg" xmlns:xlink="http://www.w3.org/1999/xlink" x="0px" y="0px" viewBox="0 0 511.998 511.998" xml:space="preserve">
<g>
	<g>
		<path d="M427.359,79.855h-35.907c-12.173,0-22.076,9.904-22.076,22.076c0,12.174,9.904,22.077,22.076,22.077h35.907
			c12.174,0,22.077-9.904,22.077-22.077C449.437,89.758,439.533,79.855,427.359,79.855z M427.359,109.008h-35.907
			c-3.901,0-7.075-3.175-7.075-7.076c0-3.901,3.174-7.075,7.075-7.075h35.907c3.901,0,7.076,3.174,7.076,7.075
			C434.435,105.832,431.261,109.008,427.359,109.008z"/>
	</g>
</g>
<g>
	<g>
		<path d="M255.998,137.606c-40.99,0-74.338,33.348-74.338,74.339c-0.001,34.044,23.045,63.674,56.044,72.054
			c0.62,0.157,1.24,0.232,1.852,0.232c3.35,0,6.401-2.261,7.264-5.655c1.02-4.015-1.408-8.096-5.423-9.117
			c-26.34-6.689-44.737-30.341-44.737-57.514c0-32.719,26.619-59.338,59.337-59.338s59.338,26.619,59.338,59.338
			c0,26.249-17.628,49.686-42.869,56.992c-3.979,1.152-6.271,5.312-5.118,9.291c1.153,3.978,5.314,6.273,9.291,5.118
			c31.616-9.154,53.697-38.515,53.697-71.401C330.337,170.954,296.989,137.606,255.998,137.606z"/>
	</g>
</g>
<g>
	<g>
		<path d="M480.688,201.945c4.143,0,7.5-3.357,7.5-7.5V76.848c0-13.545-11.021-24.565-24.565-24.565H151.51V22.535
			C151.51,10.109,141.402,0,128.975,0H87.941C75.515,0,65.405,10.109,65.405,22.535v29.747h-17.03
			c-13.545,0-24.565,11.021-24.565,24.564c0,3.415,0,262.635,0,270.195c0,13.546,11.021,24.565,24.565,24.565h146.737
			c2.121,17.314,11.474,32.415,24.945,42.187v84.512c0,7.55,6.142,13.692,13.693,13.692h45.388c7.06,0,12.804-5.743,12.804-12.804
			v-85.4c13.472-9.772,22.823-24.874,24.944-42.188h146.738c13.545,0,24.564-11.021,24.564-24.565V229.447
			c0-4.143-3.357-7.5-7.5-7.5s-7.5,3.357-7.5,7.5v41.362H348.755c11.604-18.22,17.134-38.683,17.134-58.863
			c0-20.179-5.528-40.639-17.135-58.864h124.434v41.362C473.188,198.588,476.545,201.945,480.688,201.945z M87.941,15.001h41.033
			c4.155,0,7.535,3.38,7.535,7.534v29.747H80.407V22.535h-0.001C80.406,18.381,83.786,15.001,87.941,15.001z M38.81,153.081h124.433
			c-11.294,17.733-17.134,38.089-17.134,58.865c0,20.132,5.503,40.6,17.134,58.863H38.81V153.081z M276.94,496.999h-41.883v-75.21
			c6.496,2.359,13.758,3.68,20.941,3.68c7.256-0.001,14.511-1.344,20.941-3.68V496.999z M255.999,410.468
			c-22.594,0-42.094-16.439-45.755-38.859h91.509C298.125,393.819,278.77,410.468,255.999,410.468z M473.188,285.809v61.233
			c0,5.273-4.29,9.565-9.564,9.565c-4.59,0-403.264,0-415.248,0c-5.273,0-9.565-4.291-9.565-9.565v-61.233h135.893
			c43.721,48.076,118.941,47.997,162.59,0H473.188z M350.888,211.946c0,52.035-42.336,94.89-94.89,94.89
			c-52.624,0-94.889-42.966-94.889-94.89c0-52.051,42.347-94.89,94.889-94.89C308.615,117.056,350.888,160.013,350.888,211.946z
			 M473.187,138.08H337.292c-43.72-48.074-118.939-47.996-162.589,0H38.81V76.848c0-5.273,4.291-9.564,9.565-9.564
			c23.829,0,391.638,0,415.248,0c5.273,0,9.564,4.29,9.564,9.564V138.08z"/>
	</g>
</g>
<g>
</g>
<g>
</g>
<g>
</g>
<g>
</g>
<g>
</g>
<g>
</g>
<g>
</g>
<g>
</g>
<g>
</g>
<g>
</g>
<g>
</g>
<g>
</g>
<g>
</g>
<g>
</g>
<g>
</g>
</svg>
