<?xml version="1.0" encoding="iso-8859-1"?>
<!-- Generator: Adobe Illustrator 19.0.0, SVG Export Plug-In . SVG Version: 6.00 Build 0)  -->
<svg version="1.1" id="Layer_1" xmlns="http://www.w3.org/2000/svg" xmlns:xlink="http://www.w3.org/1999/xlink" x="0px" y="0px" viewBox="0 0 512 512" xml:space="preserve">
<g>
	<g>
		<path d="M503.551,416.529h-68.858V360.01c22.538-4.007,39.709-23.73,39.709-47.401v-25.347c0-26.555-21.604-48.158-48.159-48.158
			c-26.554,0-48.158,21.604-48.158,48.158v25.347c0,23.671,17.171,43.394,39.709,47.401v56.519h-96.598V360.01
			c22.538-4.007,39.71-23.73,39.71-47.401v-25.347c0-26.555-21.604-48.158-48.16-48.158c-26.554,0-48.159,21.604-48.159,48.158
			v25.347c0,23.671,17.171,43.394,39.709,47.401v56.519h-96.597V360.01c22.538-4.007,39.709-23.73,39.709-47.401v-25.347
			c0-26.555-21.604-48.158-48.159-48.158c-26.555,0-48.16,21.604-48.16,48.158v25.347c0,23.671,17.172,43.394,39.71,47.401v56.519
			H94.206V360.01c22.538-4.007,39.709-23.73,39.709-47.401v-25.347c0-26.555-21.604-48.158-48.159-48.158
			s-48.158,21.604-48.158,48.158v25.347c0,23.671,17.171,43.394,39.709,47.401v56.519H8.449c-4.666,0-8.449,3.783-8.449,8.449
			c0,4.666,3.783,8.449,8.449,8.449h495.102c4.666,0,8.449-3.783,8.449-8.449C512,420.312,508.217,416.529,503.551,416.529z
			 M54.497,312.608v-25.347c0-17.238,14.023-31.26,31.26-31.26c17.237,0,31.26,14.024,31.26,31.26v25.347
			c0,17.238-14.023,31.26-31.26,31.26C68.52,343.868,54.497,329.845,54.497,312.608z M167.991,312.608v-25.347
			c0-17.238,14.023-31.26,31.261-31.26c17.237,0,31.26,14.024,31.26,31.26v25.347c0,17.238-14.023,31.26-31.26,31.26
			C182.015,343.868,167.991,329.845,167.991,312.608z M281.487,312.608v-25.347c0-17.238,14.023-31.26,31.26-31.26
			c17.238,0,31.261,14.024,31.261,31.26v25.347c0,17.238-14.023,31.26-31.261,31.26
			C295.511,343.868,281.487,329.845,281.487,312.608z M394.984,312.608v-25.347c0-17.238,14.023-31.26,31.26-31.26
			s31.26,14.024,31.26,31.26v25.347c0,17.238-14.023,31.26-31.26,31.26S394.984,329.845,394.984,312.608z"/>
	</g>
</g>
<g>
	<g>
		<path d="M503.551,445.255H8.449c-4.666,0-8.449,3.783-8.449,8.449c0,4.666,3.783,8.449,8.449,8.449h495.102
			c4.666,0,8.449-3.783,8.449-8.449C512,449.038,508.217,445.255,503.551,445.255z"/>
	</g>
</g>
<g>
	<g>
		<path d="M240.921,109.836h-25.505c1.017-2.767,1.573-5.756,1.573-8.871c0-14.209-11.56-25.769-25.77-25.769h-35.785
			c-12.283-15.948-31.206-25.35-51.513-25.35c-35.873,0-65.059,29.185-65.059,65.059c0,35.874,29.187,65.058,65.062,65.058
			c17.573,0,34.119-7.006,46.302-19.385c2.033,0.518,4.163,0.795,6.356,0.795h84.342c14.209,0,25.769-11.56,25.769-25.769
			S255.13,109.836,240.921,109.836z M103.922,163.064c-26.555,0-48.161-21.604-48.161-48.161s21.603-48.16,48.16-48.16
			c9.895,0,19.34,3.025,27.24,8.451h-24.283c-14.209,0-25.769,11.56-25.769,25.769s11.56,25.769,25.769,25.769h25.505
			c-1.017,2.767-1.573,5.756-1.573,8.871c0,5.736,1.886,11.04,5.068,15.327C127.133,158.713,115.845,163.064,103.922,163.064z
			 M240.921,144.475h-84.342c-4.892,0-8.871-3.979-8.871-8.871c0-4.892,3.979-8.871,8.871-8.871c4.666,0,8.449-3.783,8.449-8.449
			c0-4.666-3.783-8.449-8.449-8.449h-49.701c-4.892,0-8.871-3.979-8.871-8.871s3.979-8.871,8.871-8.871h84.34
			c4.892,0,8.872,3.979,8.872,8.871s-3.98,8.871-8.872,8.871c-4.666,0-8.449,3.783-8.449,8.449c0,4.666,3.783,8.449,8.449,8.449
			h49.702c4.892,0,8.871,3.979,8.871,8.871C249.792,140.496,245.812,144.475,240.921,144.475z"/>
	</g>
</g>
<g>
	<g>
		<circle cx="78.961" cy="291.149" r="8.449"/>
	</g>
</g>
<g>
	<g>
		<circle cx="93.122" cy="316.092" r="8.449"/>
	</g>
</g>
<g>
	<g>
		<circle cx="318.909" cy="286.08" r="8.449"/>
	</g>
</g>
<g>
	<g>
		<circle cx="436.139" cy="322.851" r="8.449"/>
	</g>
</g>
<g>
	<g>
		<circle cx="410.555" cy="307.417" r="8.449"/>
	</g>
</g>
<g>
	<g>
		<circle cx="307.722" cy="319.471" r="8.449"/>
	</g>
</g>
<g>
	<g>
		<circle cx="187.742" cy="297.503" r="8.449"/>
	</g>
</g>
<g>
	<g>
		<circle cx="442.718" cy="283.038" r="8.449"/>
	</g>
</g>
<g>
</g>
<g>
</g>
<g>
</g>
<g>
</g>
<g>
</g>
<g>
</g>
<g>
</g>
<g>
</g>
<g>
</g>
<g>
</g>
<g>
</g>
<g>
</g>
<g>
</g>
<g>
</g>
<g>
</g>
</svg>
