<?xml version="1.0" encoding="iso-8859-1"?>
<!-- Generator: Adobe Illustrator 19.0.0, SVG Export Plug-In . SVG Version: 6.00 Build 0)  -->
<svg version="1.1" id="Capa_1" xmlns="http://www.w3.org/2000/svg" xmlns:xlink="http://www.w3.org/1999/xlink" x="0px" y="0px" viewBox="0 0 508 508" xml:space="preserve">
<g>
	<g>
		<g>
			<path d="M293.9,459.1v0.1c-3.2-15.9-15.8-28.5-31.7-31.7v-33.4H425V219.8l-171-171l-170.9,171v174.3h162.8v33.4
				c-15.9,3.2-28.5,15.8-31.7,31.7H1.7v16.3h212.4C217.9,494,234.3,508,254,508s36.1-14,39.9-32.6h212.4v-16.3H293.9z M99.4,377.8
				V226.5L254,71.9l154.6,154.6v151.3H99.4z M254,491.7c-13.5,0-24.4-11-24.4-24.4c0-13.5,11-24.4,24.4-24.4
				c13.4,0,24.4,11,24.4,24.4C278.4,480.8,267.5,491.7,254,491.7z"/>
			<path d="M254,23l197.7,197.7l11.5-11.5L254,0l-89.5,89.5V35.9h-48.8v102.4l-70.9,70.9l11.5,11.5L254,23z M131.9,52.2h16.3v53.6
				l-16.3,16.3V52.2z"/>
			<path d="M197,312.7h114v-114H197V312.7z M294.7,215v81.4h-81.4V215H294.7z"/>
		</g>
	</g>
</g>
<g>
</g>
<g>
</g>
<g>
</g>
<g>
</g>
<g>
</g>
<g>
</g>
<g>
</g>
<g>
</g>
<g>
</g>
<g>
</g>
<g>
</g>
<g>
</g>
<g>
</g>
<g>
</g>
<g>
</g>
</svg>
