<svg height="511pt" viewBox="0 -32 511.99968 511" width="511pt" xmlns="http://www.w3.org/2000/svg"><path d="m58.449219 75.082031c-.648438 0-1.308594-.066406-1.949219-.199219-.640625-.117187-1.269531-.320312-1.871094-.570312-.609375-.25-1.1875-.558594-1.730468-.917969-.546876-.359375-1.058594-.78125-1.519532-1.242187-.460937-.460938-.878906-.96875-1.238281-1.519532-.359375-.539062-.671875-1.117187-.921875-1.730468-.25-.597656-.449219-1.226563-.570312-1.867188-.128907-.640625-.199219-1.300781-.199219-1.953125 0-.648437.070312-1.308593.199219-1.949219.121093-.640624.320312-1.269531.570312-1.878906.25-.601562.5625-1.179687.921875-1.71875.359375-.550781.777344-1.0625 1.238281-1.519531.460938-.460937.972656-.882813 1.519532-1.25.542968-.363281 1.121093-.671875 1.730468-.921875.601563-.25 1.230469-.441406 1.871094-.570312 1.289062-.257813 2.609375-.257813 3.898438 0 .640624.128906 1.269531.320312 1.871093.570312.609375.25 1.191407.558594 1.730469.921875.550781.367187 1.058594.789063 1.519531 1.25.460938.457031.878907.96875 1.238281 1.519531.363282.539063.671876 1.117188.921876 1.71875.25.609375.449218 1.238282.570312 1.878906.128906.640626.199219 1.300782.199219 1.949219 0 2.632813-1.070313 5.210938-2.929688 7.070313-.460937.460937-.96875.882812-1.519531 1.242187-.539062.359375-1.121094.667969-1.730469.917969-.601562.25-1.230469.453125-1.871093.570312-.640626.132813-1.296876.199219-1.949219.199219zm0 0"/><path d="m500.90625 30.628906h-392.207031c-9.980469-17.953125-29.148438-30.128906-51.105469-30.128906-15.605469 0-30.773438 6.417969-41.609375 17.605469-10.742187 11.097656-16.40625 25.640625-15.9609375 40.96875v325.5c-.03125 1.113281-.03125 2.234375 0 3.355469-.3046875 15.308593 5.5390625 29.882812 16.4648435 41.054687 11.265625 11.519531 26.953125 18.125 43.035157 18.125h442.476562c5.523438 0 10-4.476563 10-10v-395.386719c0-6.117187-4.976562-11.09375-11.09375-11.09375zm-470.554688 1.390625c7.195313-7.429687 16.867188-11.519531 27.242188-11.519531 21.1875 0 38.425781 17.238281 38.425781 38.425781v284.890625c-7.683593-6.722656-17.144531-11.46875-27.570312-13.4375v-225.570312c0-5.523438-4.476563-10-10-10-5.523438 0-10 4.476562-10 10v225.292968c-10.453125 1.6875-20.34375 6.226563-28.425781 13.089844v-284.265625c0-.109375 0-.214843-.003907-.320312-.320312-9.933594 3.351563-19.375 10.332031-26.585938zm461.648438 395.089844h-432.476562c-10.738282 0-21.210938-4.414063-28.734376-12.109375-7.164062-7.324219-10.988281-16.820312-10.765624-26.75 0-.113281 0-.230469 0-.34375 0-.039062 0-.078125 0-.113281v-2.855469c.328124-8.996094 3.941406-17.457031 10.328124-24.050781 7.195313-7.429688 16.867188-11.519531 27.242188-11.519531 21.1875 0 38.425781 17.238281 38.425781 38.425781 0 5.523437 4.476563 10 10 10 5.523438 0 10-4.476563 10-10v-328.867188c0-2.816406-.199219-5.585937-.585937-8.296875h376.566406zm0 0"/><path d="m148.003906 397.792969h298.992188c-2.96875 3.917969-2.667969 9.523437.90625 13.097656 1.953125 1.953125 4.511718 2.929687 7.074218 2.929687 2.558594 0 5.117188-.976562 7.070313-2.929687l16.027344-16.027344c1.875-1.875 2.925781-4.417969 2.925781-7.070312 0-2.652344-1.050781-5.195313-2.925781-7.070313l-16.027344-16.027344c-3.90625-3.90625-10.238281-3.90625-14.144531 0-3.574219 3.574219-3.875 9.175782-.90625 13.097657h-298.992188c-5.519531 0-10 4.476562-10 10 0 5.523437 4.480469 10 10 10zm0 0"/><path d="m169.894531 221.308594h16.066407v128.4375c0 5.523437 4.476562 10 10 10h206.121093c5.523438 0 10-4.476563 10-10v-128.4375h16.066407c4.050781 0 7.699218-2.441406 9.242187-6.183594 1.546875-3.742188.683594-8.046875-2.183594-10.902344l-129.125-128.648437c-3.902343-3.886719-10.214843-3.886719-14.117187 0l-40.199219 40.050781v-10.820312c0-5.523438-4.476563-10-10-10h-39c-5.523437 0-10 4.476562-10 10v69.597656l-29.929687 29.820312c-2.867188 2.855469-3.730469 7.160156-2.183594 10.902344s5.195312 6.183594 9.242187 6.183594zm112.042969 118.4375v-52.933594h34.171875v52.933594zm110.144531 0h-55.976562v-62.933594c0-5.523438-4.476563-10-10-10h-54.167969c-5.523438 0-10 4.476562-10 10v62.933594h-55.976562v-118.4375h186.121093zm-93.058593-242.96875 104.921874 104.53125h-209.84375zm-86.257813 18.03125h19v20.742187l-19 18.929688zm0 0"/></svg>