<?xml version="1.0" encoding="iso-8859-1"?>
<!-- Generator: Adobe Illustrator 19.0.0, SVG Export Plug-In . SVG Version: 6.00 Build 0)  -->
<svg version="1.1" id="Capa_1" xmlns="http://www.w3.org/2000/svg" xmlns:xlink="http://www.w3.org/1999/xlink" x="0px" y="0px" viewBox="0 0 64 64" xml:space="preserve">
<g>
	<path d="M8.793,19.207c0.391,0.391,1.023,0.391,1.414,0L18,11.414l4.293,4.293c0.391,0.391,1.023,0.391,1.414,0L31,8.414
		l14.293,14.293C45.488,22.902,45.744,23,46,23s0.512-0.098,0.707-0.293L58,11.414l4.293,4.293l1.414-1.414l-5-5
		c-0.391-0.391-1.023-0.391-1.414,0L53,13.586l-6.293-6.293c-0.391-0.391-1.023-0.391-1.414,0L39,13.586l-7.293-7.293
		c-0.391-0.391-1.023-0.391-1.414,0L27.5,9.086l-8.793-8.793c-0.391-0.391-1.023-0.391-1.414,0L5,12.586l-2.293-2.293
		C2.52,10.106,2.265,10,2,10H0v2h1.586L8.793,19.207z M46,9.414L51.586,15L46,20.586L40.414,15L46,9.414z M18,2.414l8.086,8.086
		L23,13.586l-4.293-4.293c-0.391-0.391-1.023-0.391-1.414,0L9.5,17.086L6.414,14L18,2.414z"/>
	<path d="M39,8c2.206,0,4-1.794,4-4s-1.794-4-4-4s-4,1.794-4,4S36.794,8,39,8z M39,2c1.103,0,2,0.898,2,2s-0.897,2-2,2s-2-0.898-2-2
		S37.897,2,39,2z"/>
	<path d="M52,5c0.256,0,0.512-0.098,0.707-0.293l3-3l-1.414-1.414L52,2.586l-2.293-2.293l-1.414,1.414l3,3
		C51.488,4.902,51.744,5,52,5z"/>
	<path d="M60,8c0.256,0,0.512-0.098,0.707-0.293l3-3l-1.414-1.414L60,5.586l-2.293-2.293l-1.414,1.414l3,3
		C59.488,7.902,59.744,8,60,8z"/>
	<rect x="0" y="0" width="2" height="2"/>
	<rect x="4" y="0" width="2" height="2"/>
	<rect x="8" y="0" width="2" height="2"/>
	<path d="M0,25v2h10.866c1.399,0.343,2.999,1.362,4.043,2.218c1.837,1.506,2.781,4.087,2.348,6.422
		c-0.112,0.604-0.315,1.196-0.604,1.763c-0.288,0.562-0.652,1.085-1.084,1.554c-0.448,0.487-0.995,0.924-1.581,1.263
		c-0.128,0.074-0.264,0.138-0.4,0.203c-0.218,0.104-0.462,0.224-0.705,0.38c-2.701-0.306-5.438-0.154-8.112,0.007
		C3.203,40.903,1.582,41,0,41v2c1.642,0,3.293-0.099,4.889-0.194c3.918-0.234,7.621-0.456,11.151,0.678
		c1.737,0.559,2.673,1.21,2.947,2.049c0.067,0.207,0.103,0.459,0.141,0.727c0.04,0.28,0.082,0.561,0.152,0.834
		c0.518,2.002,2.329,3.207,3.849,4.034c0.958,0.521,1.945,1.002,2.899,1.468c0.901,0.439,1.802,0.88,2.685,1.354
		c1.563,0.84,3.508,1.886,4.573,3.365c0.358,0.498,0.531,1.025,0.486,1.483c-0.089,0.906-0.896,1.767-1.676,2.598
		c-0.31,0.331-0.613,0.654-0.873,0.975l1.554,1.26c0.231-0.286,0.501-0.571,0.777-0.865c0.962-1.025,2.054-2.188,2.208-3.771
		c0.092-0.942-0.21-1.953-0.853-2.847c-0.712-0.989-1.689-1.793-2.695-2.466c1.567-0.14,3.08-0.167,4.334-0.155
		c2.638,0.023,5.407,0.189,7.78,1.251c2.464,1.102,4.212,3.215,4.452,5.382c0.092,0.831-0.205,1.28-1.322,2.002l1.085,1.68
		c1.227-0.792,2.45-1.875,2.225-3.902c-0.121-1.09-0.5-2.148-1.094-3.119c0.24,0.05,0.477,0.103,0.729,0.135
		c0.401,0.051,0.816,0.075,1.247,0.075c0.848,0,1.75-0.098,2.698-0.292c0.934-0.192,1.846-0.452,2.729-0.704
		c0.522-0.148,1.044-0.297,1.57-0.432l0.32-0.08c1.149-0.284,2.58-0.637,3.424-1.788c0.635-0.865,0.919-1.832,1.136-2.669
		C63.846,49.837,64,48.508,64,47c0-2.266-1.78-4.006-3.08-5.276c-0.917-0.896-1.938-1.734-3.077-2.543
		C62.898,37.479,64,34.908,64,33v-6v-1v-1H0z M16.177,27.671c-0.175-0.143-0.491-0.389-0.889-0.671h21.974
		c1.112,0.427,2.257,0.725,3.365,1.012c1.034,0.268,2.01,0.52,2.96,0.869c1.271,0.468,3.521,1.552,4.322,3.565
		c0.922,2.317-0.419,4.974-2.055,6.46c-1.835,1.668-4.352,2.605-6.651,3.407c-0.325-0.167-0.651-0.333-0.985-0.484l-0.425-0.188
		c-1.01-0.444-1.964-0.863-2.446-1.606c-0.196-0.302-0.331-0.689-0.473-1.102c-0.169-0.485-0.36-1.037-0.692-1.545
		c-1.163-1.78-3.461-2.209-4.834-2.465c-1.069-0.198-2.155-0.468-3.305-0.754c-2.242-0.557-4.558-1.121-6.819-1.157
		C18.875,30.95,17.816,29.014,16.177,27.671z M29.367,52.04c-0.813-0.429-1.636-0.839-2.462-1.243
		c-0.935-0.456-1.901-0.928-2.821-1.428c-1.165-0.633-2.543-1.521-2.868-2.776c-0.052-0.201-0.079-0.408-0.108-0.615
		c-0.046-0.324-0.098-0.691-0.22-1.064c-0.642-1.974-2.725-2.848-4.236-3.334c-0.265-0.085-0.533-0.147-0.799-0.219
		c0.426-0.319,0.83-0.661,1.187-1.05c0.555-0.602,1.023-1.274,1.394-1.998c0.377-0.738,0.643-1.515,0.79-2.308
		c0.06-0.326,0.091-0.656,0.112-0.985c1.995,0.055,4.141,0.573,6.225,1.091c1.128,0.28,2.294,0.569,3.421,0.779
		c1.432,0.267,2.884,0.609,3.526,1.592c0.198,0.303,0.333,0.693,0.477,1.107c0.167,0.482,0.357,1.029,0.685,1.534
		c0.807,1.245,2.142,1.831,3.319,2.349l0.409,0.181c1.582,0.711,3.061,1.633,4.396,2.74c1.213,1.006,1.949,1.912,2.316,2.85
		c0.408,1.045,0.362,2.245-0.084,3.271c-2.406-0.821-4.993-0.968-7.462-0.99C34.563,51.508,31.941,51.554,29.367,52.04z M62,47
		c0,1.336-0.134,2.502-0.409,3.562c-0.217,0.84-0.429,1.465-0.812,1.988c-0.415,0.566-1.412,0.812-2.291,1.029l-0.337,0.084
		c-0.544,0.139-1.083,0.292-1.622,0.446c-0.887,0.252-1.724,0.491-2.584,0.668c-1.213,0.249-2.321,0.313-3.293,0.191
		c-0.583-0.073-1.116-0.205-1.583-0.391c-0.115-0.046-0.213-0.097-0.327-0.148C48.273,54.222,48,53.992,47,53.98v0.023
		c0-0.248-0.741-0.476-1.132-0.686c0.652-1.506,0.712-3.268,0.112-4.802c-0.651-1.664-1.971-2.887-2.906-3.661
		c-0.525-0.436-1.079-0.835-1.642-1.218c2.018-0.762,4.082-1.719,5.768-3.25c0.207-0.188,0.406-0.392,0.601-0.605
		c1.448,0.229,2.821,0.358,4.113,0.358c1.173,0,2.281-0.105,3.344-0.294l-0.003,0.005c1.665,1.046,3.061,2.126,4.268,3.304
		C60.626,44.233,62,45.576,62,47z M62,33c0,2.405-3.035,3.794-5.581,4.535c-2.134,0.622-4.532,0.759-7.293,0.423
		c1.045-1.856,1.496-4.106,0.642-6.252c-1.033-2.599-3.556-3.992-5.49-4.703c-0.004-0.002-0.008-0.002-0.012-0.004H62V33z"/>
	<path d="M16.949,55.492c-0.361-0.086-0.726-0.163-1.089-0.24c-0.914-0.194-1.777-0.377-2.583-0.689
		c-0.591-0.229-0.989-0.495-1.184-0.791c-0.099-0.149-0.142-0.406-0.191-0.704c-0.073-0.438-0.164-0.982-0.5-1.501
		c-1.066-1.649-3.533-2.283-5.416-2.525c-1.351-0.172-2.755-0.127-4.112-0.082C1.252,48.98,0.626,49,0,49v2
		c0.648,0,1.295-0.021,1.938-0.042c1.338-0.044,2.602-0.086,3.793,0.067c2.006,0.257,3.498,0.865,3.99,1.627
		c0.111,0.171,0.155,0.438,0.207,0.745c0.072,0.433,0.163,0.972,0.494,1.476c0.434,0.658,1.131,1.166,2.131,1.555
		c0.958,0.37,1.941,0.579,2.891,0.78c0.349,0.074,0.697,0.148,1.043,0.229c2.179,0.518,3.566,1.385,4.243,2.651
		c0.457,0.856,0.344,1.433-0.433,2.199l1.405,1.424c1.403-1.386,1.67-2.922,0.792-4.564C21.546,57.369,19.68,56.14,16.949,55.492z"/>
	<rect x="0" y="29" width="2" height="2"/>
	<rect x="0" y="33" width="2" height="2"/>
	<rect x="0" y="37" width="2" height="2"/>
	<rect x="0" y="45" width="2" height="2"/>
	<rect x="4" y="45" width="2" height="2"/>
	<rect x="8" y="45" width="2" height="2"/>
	<rect x="0" y="53" width="2" height="2"/>
	<rect x="4" y="53" width="2" height="2"/>
	<rect x="0" y="57" width="2" height="2"/>
	<rect x="4" y="57" width="2" height="2"/>
	<rect x="8" y="57" width="2" height="2"/>
	<rect x="0" y="61" width="2" height="2"/>
	<rect x="4" y="61" width="2" height="2"/>
	<rect x="8" y="61" width="2" height="2"/>
	<rect x="12" y="59" width="2" height="2"/>
	<rect x="16" y="59" width="2" height="2"/>
	<rect x="12" y="45" width="2" height="2"/>
	<rect x="16" y="45" width="2" height="2"/>
	<rect x="12" y="49" width="2" height="2"/>
	<rect x="16" y="49" width="2" height="2"/>
	<rect x="18" y="53" width="2" height="2"/>
	<rect x="22" y="53" width="2" height="2"/>
	<rect x="24" y="57" width="2" height="2"/>
	<rect x="28" y="57" width="2" height="2"/>
	<rect x="24" y="61" width="2" height="2"/>
	<rect x="28" y="61" width="2" height="2"/>
	<rect x="4" y="29" width="2" height="2"/>
	<rect x="4" y="33" width="2" height="2"/>
	<rect x="4" y="37" width="2" height="2"/>
	<rect x="8" y="29" width="2" height="2"/>
	<rect x="8" y="33" width="2" height="2"/>
	<rect x="8" y="37" width="2" height="2"/>
	<rect x="12" y="37" width="2" height="2"/>
	<rect x="12" y="33" width="2" height="2"/>
	<rect x="12" y="29" width="2" height="2"/>
	<rect x="20" y="29" width="2" height="2"/>
	<rect x="24" y="29" width="2" height="2"/>
	<rect x="28" y="29" width="2" height="2"/>
	<rect x="20" y="38" width="2" height="2"/>
	<rect x="24" y="38" width="2" height="2"/>
	<rect x="28" y="38" width="2" height="2"/>
	<rect x="24" y="42" width="2" height="2"/>
	<rect x="28" y="42" width="2" height="2"/>
	<rect x="24" y="46" width="2" height="2"/>
	<rect x="28" y="46" width="2" height="2"/>
	<rect x="32" y="46" width="2" height="2"/>
	<rect x="36" y="46" width="2" height="2"/>
	<rect x="46" y="42" width="2" height="2"/>
	<rect x="50" y="42" width="2" height="2"/>
	<rect x="54" y="42" width="2" height="2"/>
	<rect x="48" y="46" width="2" height="2"/>
	<rect x="52" y="46" width="2" height="2"/>
	<rect x="56" y="46" width="2" height="2"/>
	<rect x="48" y="50" width="2" height="2"/>
	<rect x="52" y="50" width="2" height="2"/>
	<rect x="56" y="50" width="2" height="2"/>
	<rect x="58" y="58" width="2" height="2"/>
	<rect x="62" y="58" width="2" height="2"/>
	<rect x="54" y="62" width="2" height="2"/>
	<rect x="54" y="58" width="2" height="2"/>
	<rect x="58" y="62" width="2" height="2"/>
	<rect x="62" y="62" width="2" height="2"/>
	<rect x="40" y="49" width="2" height="2"/>
	<rect x="32" y="29" width="2" height="2"/>
	<rect x="36" y="29" width="2" height="2"/>
	<rect x="40" y="29" width="2" height="2"/>
	<rect x="32" y="33" width="2" height="2"/>
	<rect x="36" y="33" width="2" height="2"/>
	<rect x="40" y="33" width="2" height="2"/>
	<rect x="36" y="37" width="2" height="2"/>
	<rect x="40" y="37" width="2" height="2"/>
	<rect x="44" y="33" width="2" height="2"/>
	<rect x="53" y="29" width="2" height="2"/>
	<rect x="57" y="29" width="2" height="2"/>
	<rect x="53" y="33" width="2" height="2"/>
	<rect x="57" y="33" width="2" height="2"/>
	<rect x="37" y="56" width="2" height="2"/>
	<rect x="41" y="56" width="2" height="2"/>
	<rect x="37" y="60" width="2" height="2"/>
	<rect x="41" y="60" width="2" height="2"/>
	<rect x="45" y="58" width="2" height="2"/>
</g>
<g>
</g>
<g>
</g>
<g>
</g>
<g>
</g>
<g>
</g>
<g>
</g>
<g>
</g>
<g>
</g>
<g>
</g>
<g>
</g>
<g>
</g>
<g>
</g>
<g>
</g>
<g>
</g>
<g>
</g>
</svg>
