<svg height="511pt" viewBox="-19 0 511 511.952" width="511pt" xmlns="http://www.w3.org/2000/svg"><path d="m376.476562 464-320-.046875c-4.425781 0-8-3.585937-8-8v-447.953125c0-4.425781 3.574219-8 8-8h272c2.121094 0 4.160157.839844 5.65625 2.34375l48 47.953125c1.503907 1.503906 2.34375 3.527344 2.34375 5.65625v400.046875c0 2.128906-.839843 4.160156-2.34375 5.65625-1.503906 1.496094-3.527343 2.34375-5.65625 2.34375zm-312-16.046875 304 .046875v-388.734375l-43.3125-43.265625h-260.6875zm0 0"/><path d="m352.5 487.976562-320-.046874c-4.425781 0-8-3.585938-8-8v-447.953126c0-4.425781 3.574219-8 8-8h23.976562c4.421876 0 8 3.574219 8 8 0 4.421876-3.578124 8-8 8h-15.976562v431.953126l304 .046874v-16.023437c0-4.425781 3.574219-8 8-8s8 3.574219 8 8v24.023437c0 2.128907-.839844 4.160157-2.34375 5.65625-1.503906 1.496094-3.527344 2.34375-5.65625 2.34375zm0 0"/><path d="m328.476562 511.953125-320-.050781c-4.425781 0-8-3.582032-8-8v-447.949219c0-4.425781 3.574219-8 8-8h23.976563c4.421875 0 8 3.574219 8 8 0 4.421875-3.578125 8-8 8h-15.976563v431.949219l304 .050781v-16.023437c0-4.425782 3.574219-8 8-8 4.421876 0 8 3.574218 8 8v24.023437c0 2.125-.839843 4.160156-2.34375 5.65625-1.503906 1.496094-3.527343 2.34375-5.65625 2.34375zm0 0"/><path d="m376.476562 63.953125h-48c-4.425781 0-8-3.578125-8-8 0-4.425781 3.574219-8 8-8h48c4.421876 0 8 3.574219 8 8 0 4.421875-3.578124 8-8 8zm0 0"/><path d="m328.476562 63.953125c-4.425781 0-8-3.578125-8-8v-47.953125c0-4.425781 3.574219-8 8-8 4.421876 0 8 3.574219 8 8v47.953125c0 4.421875-3.578124 8-8 8zm0 0"/><path d="m440.476562 111.902344c-4.425781 0-8-3.574219-8-8 0-4.414063-3.585937-8-8-8-4.417968 0-8 3.585937-8 8 0 4.425781-3.578124 8-8 8-4.425781 0-8-3.574219-8-8 0-13.230469 10.765626-24 24-24 13.230469 0 24 10.769531 24 24 0 4.425781-3.578124 8-8 8zm0 0"/><path d="m408.476562 383.902344c-4.425781 0-8-3.574219-8-8v-272c0-4.421875 3.574219-8 8-8 4.421876 0 8 3.578125 8 8v272c0 4.425781-3.578124 8-8 8zm0 0"/><path d="m440.476562 383.902344c-4.425781 0-8-3.574219-8-8v-272c0-4.421875 3.574219-8 8-8 4.421876 0 8 3.578125 8 8v272c0 4.425781-3.578124 8-8 8zm0 0"/><path d="m424.484375 407.902344c-2.585937 0-5.128906-1.246094-6.664063-3.558594l-16-24c-2.457031-3.679688-1.464843-8.640625 2.214844-11.097656 3.679688-2.445313 8.640625-1.453125 11.097656 2.21875l16 24c2.457032 3.679687 1.464844 8.640625-2.21875 11.09375-1.367187.914062-2.910156 1.34375-4.429687 1.34375zm0 0"/><path d="m424.46875 407.902344c-1.519531 0-3.066406-.4375-4.433594-1.34375-3.679687-2.453125-4.671875-7.414063-2.214844-11.09375l16-24c2.441407-3.671875 7.398438-4.664063 11.09375-2.21875 3.683594 2.457031 4.675782 7.417968 2.21875 11.097656l-16 24c-1.535156 2.3125-4.082031 3.558594-6.664062 3.558594zm0 0"/><path d="m424.476562 415.902344c-4.425781 0-8-3.574219-8-8v-8c0-4.421875 3.574219-8 8-8 4.421876 0 8 3.578125 8 8v8c0 4.425781-3.578124 8-8 8zm0 0"/><path d="m440.476562 367.902344h-32c-4.425781 0-8-3.574219-8-8 0-4.421875 3.574219-8 8-8h32c4.421876 0 8 3.578125 8 8 0 4.425781-3.578124 8-8 8zm0 0"/><path d="m464.476562 135.902344c-4.425781 0-8-3.574219-8-8 0-4.414063-3.585937-8-8-8-4.425781 0-8-3.574219-8-8 0-4.421875 3.574219-8 8-8 13.230469 0 24 10.769531 24 24 0 4.425781-3.578124 8-8 8zm0 0"/><path d="m464.476562 231.902344c-4.425781 0-8-3.574219-8-8v-96c0-4.421875 3.574219-8 8-8 4.421876 0 8 3.578125 8 8v96c0 4.425781-3.578124 8-8 8zm0 0"/><path d="m448.476562 119.902344h-8c-4.425781 0-8-3.574219-8-8 0-4.421875 3.574219-8 8-8h8c4.421876 0 8 3.578125 8 8 0 4.425781-3.578124 8-8 8zm0 0"/><path d="m440.476562 191.902344h-32c-4.425781 0-8-3.574219-8-8 0-4.421875 3.574219-8 8-8h32c4.421876 0 8 3.578125 8 8 0 4.425781-3.578124 8-8 8zm0 0"/><path d="m320.476562 215.953125h-208c-4.425781 0-8-3.578125-8-8 0-4.425781 3.574219-8 8-8h208c4.421876 0 8 3.574219 8 8 0 4.421875-3.578124 8-8 8zm0 0"/><path d="m320.476562 255.953125h-208c-4.425781 0-8-3.578125-8-8 0-4.425781 3.574219-8 8-8h208c4.421876 0 8 3.574219 8 8 0 4.421875-3.578124 8-8 8zm0 0"/><path d="m320.476562 295.953125h-208c-4.425781 0-8-3.578125-8-8 0-4.425781 3.574219-8 8-8h208c4.421876 0 8 3.574219 8 8 0 4.421875-3.578124 8-8 8zm0 0"/><path d="m216.476562 335.953125h-104c-4.425781 0-8-3.578125-8-8 0-4.425781 3.574219-8 8-8h104c4.421876 0 8 3.574219 8 8 0 4.421875-3.578124 8-8 8zm0 0"/><path d="m320.476562 407.953125h-56c-4.425781 0-8-3.578125-8-8 0-4.425781 3.574219-8 8-8h56c4.421876 0 8 3.574219 8 8 0 4.421875-3.578124 8-8 8zm0 0"/><path d="m280.476562 423.953125c-4.425781 0-8-3.578125-8-8v-32c0-4.425781 3.574219-8 8-8 4.421876 0 8 3.574219 8 8v32c0 4.421875-3.578124 8-8 8zm0 0"/><path d="m280.46875 423.953125c-1.671875 0-3.351562-.519531-4.792969-1.601563-3.535156-2.648437-4.253906-7.664062-1.601562-11.191406l24-32c2.648437-3.542968 7.664062-4.25 11.195312-1.601562 3.535157 2.648437 4.253907 7.664062 1.597657 11.195312l-24 32c-1.558594 2.09375-3.960938 3.199219-6.398438 3.199219zm0 0"/><path d="m304.476562 423.953125c-4.425781 0-8-3.578125-8-8v-32c0-4.425781 3.574219-8 8-8 4.421876 0 8 3.574219 8 8v32c0 4.421875-3.578124 8-8 8zm0 0"/><path d="m176.476562 160.113281h-64c-4.425781 0-8-3.578125-8-8 0-4.425781 3.574219-8 8-8h64c4.421876 0 8 3.574219 8 8 0 4.421875-3.578124 8-8 8zm0 0"/><path d="m144.476562 160.113281c-4.425781 0-8-3.578125-8-8v-71.992187c0-4.425782 3.574219-8 8-8 4.421876 0 8 3.574218 8 8v71.992187c0 4.414063-3.578124 8-8 8zm0 0"/><path d="m176.476562 96.121094h-64c-4.425781 0-8-3.578125-8-8 0-4.425782 3.574219-8 8-8h64c4.421876 0 8 3.574218 8 8 0 4.421875-3.578124 8-8 8zm0 0"/><path d="m184.476562 120.121094h-16c-4.425781 0-8-3.578125-8-8 0-4.425782 3.574219-8 8-8h16c4.421876 0 8 3.574218 8 8 0 4.421875-3.578124 8-8 8zm0 0"/><path d="m120.476562 120.121094h-16c-4.425781 0-8-3.578125-8-8 0-4.425782 3.574219-8 8-8h16c4.421876 0 8 3.574218 8 8 0 4.421875-3.578124 8-8 8zm0 0"/></svg>