<svg height="512pt" viewBox="-17 0 512 512" width="512pt" xmlns="http://www.w3.org/2000/svg"><path d="m476.289062 417.34375-59.875-103.703125h.914063c3.574219 0 6.875-1.90625 8.660156-5 1.785157-3.09375 1.785157-6.90625 0-10l-55.746093-96.550781h.234374c3.574219 0 6.875-1.90625 8.660157-5 1.789062-3.097656 1.789062-6.90625 0-10l-63.394531-109.792969c-1.785157-3.097656-5.085938-5-8.660157-5-3.570312 0-6.871093 1.902344-8.660156 5l-21.667969 37.527344-63.414062-109.824219c-1.785156-3.09375-5.085938-5-8.660156-5-3.570313 0-6.871094 1.90625-8.660157 5l-76.871093 133.136719c-1.785157 3.09375-1.785157 6.90625 0 10 1.785156 3.09375 5.085937 5 8.660156 5h3.96875l-69.441406 120.269531c-1.785157 3.09375-1.785157 6.902344 0 10 1.789062 3.09375 5.089843 5 8.660156 5h4.792968l-74.449218 128.9375c-1.785156 3.09375-1.785156 6.90625 0 10s5.085937 5 8.660156 5h150.785156v69.65625c0 5.523438 4.476563 10 10 10h67.792969c5.519531 0 10-4.476562 10-10v-69.65625h15.539063v69.65625c0 5.523438 4.476562 10 10 10h65.929687c5.523437 0 10-4.476562 10-10v-69.65625h117.582031c3.574219 0 6.875-1.90625 8.660156-5 1.789063-3.09375 1.789063-6.90625 0-10zm-169.207031-315.050781 46.074219 79.796875h-91.832031c-.039063 0-.074219 0-.113281 0h-.199219zm-102.402343-72.292969 59.550781 103.136719h-119.097657zm-49.804688 123.136719h99.757812l-19.605468 33.953125c-1.785156 3.09375-1.785156 6.902344 0 10 1.789062 3.09375 5.089844 5 8.660156 5h.238281l-38.289062 66.316406h-117.320313zm-55.992188 135.269531h95.203126l-5.90625 10.234375c-1.789063 3.09375-1.789063 6.90625 0 10 1.785156 3.09375 5.085937 5 8.660156 5h.914062l-56.992187 98.703125h-113.441407zm129.695313 203.59375h-47.792969v-59.65625h47.792969zm101.46875 0h-45.929687v-59.65625h45.929687zm-166.191406-79.65625 56.992187-98.703125h60.707032c5.523437 0 10-4.476563 10-10s-4.476563-10-10-10h-67.394532l52.859375-91.550781h80.125l52.863281 91.550781h-.730468c-.121094-.003906-.246094-.003906-.367188 0h-21.890625c-5.523437 0-10 4.476563-10 10s4.476563 10 10 10h16.300781l56.988282 98.703125zm0 0"/><path d="m327.367188 313.640625c-2.632813 0-5.210938-1.070313-7.070313-2.929687-.460937-.460938-.882813-.972657-1.242187-1.519532-.359376-.542968-.667969-1.121094-.917969-1.730468-.25-.601563-.441407-1.230469-.570313-1.871094-.132812-.640625-.191406-1.300782-.191406-1.949219s.058594-1.308594.191406-1.949219c.128906-.640625.320313-1.269531.570313-1.882812.25-.597656.558593-1.179688.917969-1.71875.359374-.550782.78125-1.058594 1.242187-1.519532 2.328125-2.332031 5.777344-3.390624 9.027344-2.742187.640625.132813 1.261719.320313 1.871093.570313.601563.25 1.179688.5625 1.71875.921874.550782.367188 1.0625.789063 1.53125 1.25.460938.460938.871094.96875 1.238282 1.519532.363281.539062.671875 1.121094.921875 1.71875.25.613281.441406 1.242187.570312 1.882812.128907.640625.199219 1.300782.199219 1.949219s-.070312 1.308594-.199219 1.949219c-.128906.640625-.320312 1.269531-.570312 1.871094-.25.609374-.558594 1.1875-.921875 1.730468-.367188.550782-.777344 1.058594-1.238282 1.519532-.46875.460937-.980468.878906-1.53125 1.238281-.539062.359375-1.117187.671875-1.71875.921875-.609374.25-1.230468.4375-1.871093.566406-.648438.132812-1.300781.203125-1.957031.203125zm0 0"/></svg>