<?xml version="1.0" encoding="iso-8859-1"?>
<!-- Generator: Adobe Illustrator 19.0.0, SVG Export Plug-In . SVG Version: 6.00 Build 0)  -->
<svg version="1.1" id="Layer_1" xmlns="http://www.w3.org/2000/svg" xmlns:xlink="http://www.w3.org/1999/xlink" x="0px" y="0px" viewBox="0 0 512 512" xml:space="preserve">
<g>
	<g>
		<path d="M477.474,75.34H259.946L183.084,6.713c-7.686-6.863-18.304-8.511-27.709-4.3c-9.406,4.211-15.248,13.228-15.248,23.534
			V75.34H91.621V17.27c0-4.838-2.086-9.445-5.723-12.637c-3.637-3.194-8.471-4.666-13.268-4.039C31.224,5.997,0,41.608,0,83.425
			v344.926c0,46.062,37.475,83.537,83.537,83.537h393.937c19.038,0,34.526-15.488,34.526-34.526V109.866
			C512,90.829,496.512,75.34,477.474,75.34z M156.295,25.947c0-3.901,2.126-7.182,5.686-8.777c1.315-0.589,2.672-0.877,4.007-0.877
			c2.279,0,4.493,0.843,6.327,2.482l237.71,212.241c4.584,4.094,3.133,9.148,2.581,10.6c-0.553,1.452-2.838,6.188-8.984,6.188
			h-42.526V234.33c0-4.466-3.618-8.084-8.084-8.084c-4.466,0-8.084,3.618-8.084,8.084v13.474h-26.947V234.33
			c0-4.466-3.618-8.084-8.084-8.084c-4.466,0-8.084,3.618-8.084,8.084v13.474h-26.947V234.33c0-4.466-3.618-8.084-8.084-8.084
			c-4.466,0-8.084,3.618-8.084,8.084v13.474h-26.947V234.33c0-4.466-3.62-8.084-8.084-8.084c-4.465,0-8.084,3.618-8.084,8.084
			v13.474h-49.668c-5.302,0-9.616-4.314-9.616-9.616V25.947z M16.168,83.425c0-33.724,25.173-62.442,58.554-66.798
			c0.071-0.011,0.288-0.038,0.508,0.156c0.222,0.194,0.222,0.414,0.222,0.487v327.358c0,0.326-0.254,0.597-0.593,0.633
			c-24.309,2.511-45.2,15.19-58.691,33.57V83.425z M495.832,477.362c0,10.122-8.236,18.358-18.358,18.358H83.537
			c-37.146,0-67.368-30.221-67.368-67.368c0-34.647,25.946-63.454,60.352-67.008c8.609-0.888,15.1-8.075,15.1-16.715V91.509h48.505
			v146.679c0,14.217,11.567,25.784,25.784,25.784h237.71c10.79,0,20.245-6.514,24.091-16.595
			c3.845-10.081,1.131-21.237-6.918-28.423L278.055,91.509h199.419c10.122,0,18.358,8.236,18.358,18.358V477.362z"/>
	</g>
</g>
<g>
	<g>
		<path d="M314.122,195.962l-106.633-95.207c-2.377-2.122-5.779-2.649-8.688-1.347c-2.908,1.302-4.78,4.192-4.78,7.378v95.207
			c0,4.465,3.62,8.084,8.084,8.084h106.633c3.352,0,6.357-2.07,7.554-5.203C317.486,201.742,316.624,198.197,314.122,195.962z
			 M210.189,193.909v-69.067l77.356,69.067H210.189z"/>
	</g>
</g>
<g>
	<g>
		<path d="M408.224,301.732c-5.441-6.599-13.676-10.812-22.876-10.812c-9.185,0-17.407,4.199-22.848,10.779H212.884
			c-1.821,0-3.495,0.609-4.845,1.623l-0.005-0.006l-71.677,53.757c-5.651,4.238-8.837,10.774-8.687,17.862
			c0.144,6.818,3.651,13.13,9.106,17.221l71.257,53.442l0.005-0.006c1.352,1.014,3.026,1.623,4.845,1.623h31.661
			c4.465,0,8.084-3.62,8.084-8.084c0-4.465-3.62-8.084-8.084-8.084h-23.577v-80.842h67.03c4.427,0,8.287-3.412,8.419-7.837
			c0.137-4.578-3.533-8.331-8.081-8.331h-67.368v-16.168h134.737v16.168h-34.693c-4.427,0-8.287,3.412-8.419,7.836
			c-0.137,4.579,3.533,8.332,8.081,8.332h35.032v80.842H280.19c-4.465,0-8.084,3.62-8.084,8.084c0,4.465,3.62,8.084,8.084,8.084
			h82.309c5.441,6.579,13.663,10.779,22.848,10.779c9.2,0,17.435-4.214,22.876-10.812c33.568-0.707,60.661-28.212,60.661-61.945
			v-21.558C468.884,329.943,441.791,302.438,408.224,301.732z M161.684,390.623l-15.625-11.719c-1.414-1.06-2.225-2.682-2.225-4.45
			c0-1.768,0.811-3.39,2.225-4.45l15.625-11.718V390.623z M204.8,422.961l-26.947-20.211v-56.589l26.947-20.211V422.961z
			 M398.821,428.351c0,7.43-6.044,13.474-13.474,13.474s-13.474-6.044-13.474-13.474V320.561c0-7.43,6.044-13.474,13.474-13.474
			s13.474,6.044,13.474,13.474V428.351z M452.716,385.235c0,22.502-16.309,41.266-37.726,45.096v-111.75
			c21.418,3.83,37.726,22.594,37.726,45.096V385.235z"/>
	</g>
</g>
<g>
</g>
<g>
</g>
<g>
</g>
<g>
</g>
<g>
</g>
<g>
</g>
<g>
</g>
<g>
</g>
<g>
</g>
<g>
</g>
<g>
</g>
<g>
</g>
<g>
</g>
<g>
</g>
<g>
</g>
</svg>
