<svg height="512pt" viewBox="0 -1 512.001 512" width="512pt" xmlns="http://www.w3.org/2000/svg"><path d="m165.160156 150.683594c82.875 0 172.59375-39.199219 205.605469-55.113282 22.003906 33.609376 60.242187 55.113282 102.25 55.113282h38.714844l-28.648438-26.042969c-13.71875-12.472656-21.585937-30.441406-21.585937-49.296875 0-18.859375 7.867187-36.828125 21.585937-49.300781l28.648438-26.042969h-38.714844c-40.996094 0-79.746094 21.609375-102.210937 56.027344-33.066407-16.203125-122.769532-56.027344-205.644532-56.027344-105.347656 0-155.941406 63.972656-158.042968 66.695312l-7.117188 9.222657 7.191406 9.164062c2.101563 2.679688 52.695313 65.601563 157.96875 65.601563zm266.398438-75.457032v.117188c0 13.640625 2.863281 26.972656 8.21875 39.164062-19.058594-7.378906-35.476563-20.9375-46.046875-38.671874 10.667969-18.035157 27.035156-31.847657 45.9375-39.414063-5.269531 12.089844-8.09375 25.296875-8.109375 38.804687zm-261.515625 45.457032c6.585937-13.910156 10.085937-29.210938 10.085937-44.84375 0-15.847656-3.609375-31.644532-10.246094-45.839844 64.320313 1.300781 134.652344 28.726562 172.292969 45.726562-37.640625 16.71875-107.859375 43.632813-172.132812 44.957032zm-106.050781-63.332032c21.753906-13.46875 46.066406-22.007812 72.542968-25.539062 8.738282 12.589844 13.65625 28.242188 13.65625 44.027344 0 15.492187-4.808594 30.519531-13.644531 43.066406-26.511719-3.472656-50.855469-11.875-72.632813-25.136719-10.621093-6.464843-18.6875-12.984375-24.210937-18.019531 5.527344-5.132812 13.621094-11.792969 24.289063-18.398438zm0 0"/><path d="m90.316406 60.871094h29.9375v29.9375h-29.9375zm0 0"/><path d="m90.316406 420.117188h29.9375v29.9375h-29.9375zm0 0"/><path d="m483.082031 386.289062 28.648438-26.046874h-38.714844c-40.386719 0-79.375 20.175781-102.25 55.117187-33.015625-15.917969-122.730469-55.117187-205.605469-55.117187-105.320312 0-155.433594 62.984374-157.515625 65.664062l-7.070312 9.105469 6.996093 9.160156c2.082032 2.726563 52.195313 66.757813 157.589844 66.757813 82.878906 0 172.578125-39.828126 205.644532-56.027344 22.46875 34.417968 61.21875 56.027344 102.210937 56.027344h38.714844l-28.648438-26.046876c-13.71875-12.472656-21.585937-30.4375-21.585937-49.296874 0-18.855469 7.867187-36.828126 21.585937-49.296876zm-442.96875 48.890626c23.5-21.617188 57.046875-37.988282 96.4375-43.15625 8.832031 12.546874 13.640625 27.574218 13.640625 43.0625 0 15.785156-4.917968 31.4375-13.65625 44.027343-39.5-5.28125-73.074218-22.066406-96.421875-43.933593zm129.769531 45.746093c6.636719-14.195312 10.246094-29.992187 10.246094-45.839843 0-15.632813-3.5-30.933594-10.085937-44.839844 64.285156 1.320312 134.515625 28.242187 172.148437 44.960937-37.601562 17.003907-107.878906 44.417969-172.308594 45.71875zm261.675782-45.226562c.015625 13.511719 2.839844 26.714843 8.113281 38.804687-18.902344-7.5625-35.273437-21.375-45.941406-39.410156 10.570312-17.738281 26.988281-31.296875 46.046875-38.671875-5.355469 12.1875-8.21875 25.523437-8.21875 39.164063zm0 0"/><path d="m504.746094 246.222656c-2.101563-2.679687-52.695313-65.601562-157.96875-65.601562-82.871094 0-172.589844 39.199218-205.601563 55.113281-22.007812-33.609375-60.246093-55.113281-102.25-55.113281h-38.71875l28.648438 26.042968c13.921875 12.65625 21.589843 29.984376 21.589843 48.800782 0 18.8125-7.667968 36.140625-21.589843 48.796875l-28.648438 26.042969h38.71875c40.382813 0 79.375-20.175782 102.25-55.113282 33.011719 15.917969 122.730469 55.113282 205.601563 55.113282 105.273437 0 155.867187-62.921876 157.96875-65.597657l7.253906-9.242187zm-432.515625 47.878906c5.3125-12.0625 8.152343-25.214843 8.152343-38.636718 0-13.425782-2.839843-26.578125-8.152343-38.640625 19.027343 7.382812 35.417969 20.929687 45.972656 38.644531-10.554687 17.707031-26.945313 31.253906-45.972656 38.632812zm269.664062 6.203126c-64.125-1.320313-134.175781-28.117188-171.875-44.839844 37.699219-16.726563 107.75-43.523438 171.875-44.84375-6.585937 13.910156-10.082031 29.210937-10.082031 44.84375 0 15.632812 3.496094 30.933594 10.082031 44.839844zm33.496094-1.773438c-8.832031-12.550781-13.644531-27.578125-13.644531-43.066406 0-15.492188 4.8125-30.519532 13.644531-43.066406 39.371094 5.15625 73.078125 21.527343 96.746094 43.0625-23.777344 21.640624-57.476563 37.925781-96.746094 43.070312zm0 0"/><path d="m391.683594 240.496094h29.9375v29.9375h-29.9375zm0 0"/></svg>