<?xml version="1.0" encoding="iso-8859-1"?>
<!-- Generator: Adobe Illustrator 19.0.0, SVG Export Plug-In . SVG Version: 6.00 Build 0)  -->
<svg version="1.1" id="Capa_1" xmlns="http://www.w3.org/2000/svg" xmlns:xlink="http://www.w3.org/1999/xlink" x="0px" y="0px" viewBox="0 0 511.999 511.999" xml:space="preserve">
<g>
	<g>
		<path d="M426.627,476.894h-44.913l-8.352-25.524c8.788-6.813,12.815-18.668,9.164-29.827l-76.384-233.41
			c9.214-11.207,14.753-25.542,14.753-41.148c0-28.905-18.999-53.446-45.163-61.817V67.479c0-4.142-3.358-7.5-7.5-7.5
			c-4.142,0-7.5,3.358-7.5,7.5v14.785c-3.026-0.223-6.549-0.215-9.462,0V19.731c0-2.608,2.122-4.73,4.73-4.73
			c2.608,0,4.73,2.122,4.73,4.73v12.746c0,4.142,3.358,7.5,7.5,7.5c4.142,0,7.5-3.358,7.5-7.5V19.731C275.731,8.852,266.879,0,256,0
			s-19.731,8.852-19.731,19.731v65.436c-26.163,8.37-45.163,32.913-45.163,61.817c0,15.606,5.539,29.942,14.753,41.148
			l-76.383,233.41c-3.713,11.346,0.494,23.101,9.082,29.784l-8.366,25.567H85.373c-4.142,0-7.5,3.357-7.5,7.5
			c0,4.143,3.358,7.5,7.5,7.5c7.674,0,152.296,0,163.126,0v12.605c0,4.143,3.358,7.5,7.5,7.5c4.142,0,7.5-3.357,7.5-7.5v-12.605
			c7.54,0,158.47,0,163.126,0c4.142,0,7.5-3.357,7.5-7.5C434.126,480.25,430.769,476.894,426.627,476.894z M245.494,98.214
			c31.131-6.671,60.4,17.124,60.4,48.77c0,43.8-53.538,67.194-85.321,35.09c-8.936-9.021-14.465-21.42-14.465-35.09
			C206.106,123.077,223.013,103.053,245.494,98.214z M267.55,244.284h-23.1l10.607-32.412c0.16,0.003,1.807,0.001,1.887,0
			L267.55,244.284z M143.733,426.209l74.186-226.697c6.287,4.561,13.881,8.271,22.011,10.351l-73.255,223.854
			c-2.07,6.324-8.898,9.787-15.226,7.717C145.108,439.358,141.658,432.547,143.733,426.209z M263.501,476.894V464.52
			c0-4.143-3.358-7.5-7.5-7.5c-4.142,0-7.5,3.357-7.5,7.5v12.374H145.975l6.547-20.007c12.579,1.253,24.445-6.388,28.41-18.504
			l58.61-179.098h32.919l58.609,179.098c3.952,12.076,15.765,19.723,28.318,18.514l6.544,19.997H263.501z M360.551,441.434
			c-6.324,2.069-13.155-1.392-15.225-7.717L272.07,209.862c8.096-2.07,15.74-5.8,22.011-10.351l74.187,226.698
			C370.342,432.549,366.891,439.358,360.551,441.434z"/>
	</g>
</g>
<g>
	<g>
		<path d="M278.466,119.449c-3.209-2.62-7.935-2.143-10.554,1.065c-2.62,3.208-2.143,7.933,1.065,10.554
			c4.805,3.924,7.561,9.725,7.561,15.916c0,11.325-9.214,20.538-20.538,20.538c-11.325,0-20.538-9.214-20.538-20.538
			c0-6.346,2.874-12.24,7.884-16.168c3.26-2.556,3.831-7.271,1.275-10.531c-2.557-3.261-7.272-3.83-10.531-1.275
			c-8.663,6.792-13.63,16.988-13.63,27.974c0,19.596,15.943,35.539,35.539,35.539C289.384,182.523,304.198,140.464,278.466,119.449z
			"/>
	</g>
</g>
<g>
</g>
<g>
</g>
<g>
</g>
<g>
</g>
<g>
</g>
<g>
</g>
<g>
</g>
<g>
</g>
<g>
</g>
<g>
</g>
<g>
</g>
<g>
</g>
<g>
</g>
<g>
</g>
<g>
</g>
</svg>
