<svg height="511pt" viewBox="-83 1 511 511.99999" width="511pt" xmlns="http://www.w3.org/2000/svg"><path d="m328.78125 56.488281h-38.484375v-.878906c0-8.773437-7.140625-15.910156-15.910156-15.910156h-41.351563c-.324218-21.945313-18.277344-39.699219-40.300781-39.699219h-153.011719c-21.625 0-39.222656 17.597656-39.222656 39.222656v28.734375c0 4.144531 3.359375 7.5 7.5 7.5s7.5-3.355469 7.5-7.5v-28.734375c0-13.355468 10.867188-24.222656 24.222656-24.222656h153.011719c13.953125 0 25.304687 11.351562 25.304687 25.304688v6.664062c0 .078125-.003906.152344-.003906.230469s.003906.15625.003906.234375v14.527344c0 4.140624 3.359376 7.5 7.5 7.5 4.144532 0 7.5-3.359376 7.5-7.5v-7.261719h41.347657c.5 0 .910156.410156.910156.910156v102.761719c0 .507812-.398437.910156-.910156.910156h-41.347657v-67.324219c0-4.140625-3.355468-7.5-7.5-7.5-4.140624 0-7.5 3.359375-7.5 7.5v74.589844c0 .078125-.003906.15625-.003906.234375 0 .074219.003906.152344.003906.230469v38.976562h-28.65625c-3.503906-17.835937-19.257812-31.332031-38.109374-31.332031-18.847657 0-34.605469 13.496094-38.109376 31.332031h-28.65625v-30.773437h22.863282c4.140625 0 7.5-3.355469 7.5-7.5 0-4.140625-3.359375-7.5-7.5-7.5h-67.648438c-13.355468 0-24.222656-10.863282-24.222656-24.222656v-38.035157c0-4.140625-3.359375-7.5-7.5-7.5s-7.5 3.359375-7.5 7.5v38.035157c0 21.628906 17.59375 39.222656 39.222656 39.222656h29.785156v30.773437h-14.261718c-9.648438 0-17.5 7.851563-17.5 17.5v36.890625c0 9.648438 7.851562 17.5 17.5 17.5h21.265625v23.070313h-21.265625c-9.648438 0-17.5 7.851562-17.5 17.5v18.667969c0 9.648437 7.851562 17.5 17.5 17.5h30.339844l-44.714844 147.707031c-1.203125 3.964843 1.039062 8.152343 5.003906 9.351562.726562.21875 1.457031.324219 2.175781.324219 3.21875 0 6.195313-2.089844 7.175781-5.328125l46.03125-152.054687h20.566407v41.050781c0 13.648437 9.332031 25.15625 21.953125 28.480469v80.347656c0 4.144531 3.355468 7.5 7.5 7.5 4.140625 0 7.496094-3.355469 7.496094-7.5v-80.347656c12.617187-3.324219 21.949218-14.835938 21.949218-28.480469v-41.050781h20.566406l46.03125 152.054687c.980469 3.238281 3.957032 5.328125 7.175782 5.328125.722656 0 1.453125-.105469 2.175781-.324219 3.964844-1.199219 6.207031-5.386719 5.007813-9.351562l-44.714844-147.707031h30.339844c9.648437 0 17.5-7.851563 17.5-17.5v-18.667969c0-9.648438-7.851563-17.5-17.5-17.5h-21.265626v-23.070313h21.265626c9.648437 0 17.5-7.851562 17.5-17.5v-36.890625c0-9.648437-7.851563-17.5-17.5-17.5h-14.265626v-31.707031h41.347657c8.769531 0 15.910156-7.140625 15.910156-15.910156v-.871094h38.484375c9.546875 0 17.3125-7.765625 17.3125-17.3125v-66.390625c0-9.546875-7.765625-17.308594-17.3125-17.308594zm-177.507812 133.164063c13.144531 0 23.839843 10.695312 23.839843 23.839844 0 13.144531-10.695312 23.835937-23.839843 23.835937-13.144532 0-23.835938-10.691406-23.835938-23.835937 0-13.144532 10.691406-23.839844 23.835938-23.839844zm-59.761719 88.226562h52.261719v23.070313h-52.261719zm74.210937 117.789063c0 7.96875-6.480468 14.449219-14.449218 14.449219s-14.449219-6.480469-14.449219-14.449219v-41.050781h28.898437zm84.082032-77.21875v18.667969c0 1.378906-1.121094 2.5-2.5 2.5h-40.335938c-.082031-.003907-.167969-.003907-.25 0h-110.890625c-.082031-.003907-.164063-.003907-.246094 0h-40.335937c-1.378906 0-2.5-1.121094-2.5-2.5v-18.667969c0-1.378907 1.121094-2.5 2.5-2.5h192.058594c1.375 0 2.5 1.121093 2.5 2.5zm-38.765626-17.5h-52.265624v-23.070313h52.265624zm38.765626-77.460938v36.890625c0 1.378906-1.121094 2.5-2.5 2.5h-192.058594c-1.378906 0-2.5-1.121094-2.5-2.5v-36.890625c0-1.378906 1.121094-2.5 2.5-2.5h21.554687c.070313.003907.136719.003907.207031.003907.070313 0 .136719 0 .207032-.003907h35.945312c3.503906 17.839844 19.261719 31.339844 38.113282 31.339844 18.851562 0 34.605468-13.5 38.109374-31.339844h35.949219c.066407.003907.136719.003907.207031.003907.066407 0 .136719 0 .203126-.003907h21.558593c1.382813 0 2.503907 1.121094 2.503907 2.5zm81.289062-83.300781c0 1.273438-1.035156 2.3125-2.3125 2.3125h-38.484375v-71.011719h38.484375c1.273438 0 2.3125 1.035157 2.3125 2.308594zm0 0"/><path d="m61.171875 74.378906h68.152344c4.140625 0 7.5-3.355468 7.5-7.5 0-4.140625-3.359375-7.5-7.5-7.5h-68.152344c-4.140625 0-7.5 3.359375-7.5 7.5 0 4.144532 3.359375 7.5 7.5 7.5zm0 0"/><path d="m61.171875 107.832031h34.078125c4.140625 0 7.5-3.355469 7.5-7.5 0-4.140625-3.359375-7.5-7.5-7.5h-34.078125c-4.140625 0-7.5 3.359375-7.5 7.5 0 4.144531 3.359375 7.5 7.5 7.5zm0 0"/></svg>